<svg xmlns="http://www.w3.org/2000/svg" viewBox="0 0 24 24" fill="none" stroke="#c07a30" stroke-width="1.5" stroke-linecap="round" stroke-linejoin="round">
  <path d="M12.2 3.5c2.8 2.7 4.8 5.2 4.8 8.5a5 5 0 11-10 0c0-1.9.8-3.8 2.4-5.8.8 1.2 1.8 2.1 2.8 2.8.2-1.8.8-3.5 2-5.5z" fill="#d89648" fill-opacity="0.24"/>
  <path d="M12.2 3.5c2.8 2.7 4.8 5.2 4.8 8.5a5 5 0 11-10 0c0-1.9.8-3.8 2.4-5.8.8 1.2 1.8 2.1 2.8 2.8.2-1.8.8-3.5 2-5.5z"/>
  <path d="M12.4 10c1.6 1.5 2.6 2.9 2.6 4.5a3 3 0 11-6 0c0-.9.4-1.9 1.2-3 .7.7 1.4 1.2 2.1 1.5.1-1 .4-1.9 1.1-3z" fill="#d89648" fill-opacity="0.36"/>
</svg>
