<svg xmlns="http://www.w3.org/2000/svg" viewBox="0 0 24 24" fill="none" stroke="#c07a30" stroke-width="1.5" stroke-linecap="round" stroke-linejoin="round">
  <path d="M12 3l6 2.3v5.3c0 4.1-2.3 7.2-6 9.4-3.7-2.2-6-5.3-6-9.4V5.3L12 3z" fill="#d89648" fill-opacity="0.2"/>
  <path d="M12 3l6 2.3v5.3c0 4.1-2.3 7.2-6 9.4-3.7-2.2-6-5.3-6-9.4V5.3L12 3z"/>
  <path d="M12 8.1l1 2 2.2.3-1.6 1.6.4 2.2-2-1.1-2 1.1.4-2.2-1.6-1.6 2.2-.3 1-2z" fill="#d89648" fill-opacity="0.34"/>
  <path d="M9 18.1L7.5 21"/>
  <path d="M15 18.1l1.5 2.9"/>
</svg>
